<svg width="21" height="20" viewBox="0 0 21 20" fill="none" xmlns="http://www.w3.org/2000/svg">
<path d="M17.5 0H3.5C1.84315 0 0.5 1.34315 0.5 3V17C0.5 18.6569 1.84315 20 3.5 20H17.5C19.1569 20 20.5 18.6569 20.5 17V3C20.5 1.34315 19.1569 0 17.5 0Z" fill="#1877F2"/>
<path d="M14.3906 12.8906L14.8359 10H12.0625V8.125C12.0625 7.33594 12.4492 6.5625 13.6914 6.5625H14.9531V4.10156C14.9531 4.10156 13.8086 3.90625 12.7148 3.90625C10.4297 3.90625 8.9375 5.28906 8.9375 7.79688V10H6.39844V12.8906H8.9375V20H12.0625V12.8906H14.3906Z" fill="white"/>
</svg>
