<?xml version="1.0" standalone="no"?>
<!DOCTYPE svg PUBLIC "-//W3C//DTD SVG 20010904//EN"
 "http://www.w3.org/TR/2001/REC-SVG-20010904/DTD/svg10.dtd">
<svg version="1.0" xmlns="http://www.w3.org/2000/svg"
 width="500.000000pt" height="500.000000pt" viewBox="0 0 500.000000 500.000000"
 preserveAspectRatio="xMidYMid meet">

<g transform="translate(0.000000,500.000000) scale(0.100000,-0.100000)"
fill="#fff" stroke="none">
<path d="M2515 3567 c-42 -64 -23 -146 40 -173 93 -39 345 17 345 76 0 24 2
24 -58 1 -26 -11 -84 -27 -129 -36 -153 -34 -205 4 -159 116 4 9 1 21 -8 28
-12 10 -18 8 -31 -12z"/>
<path d="M2657 3572 c-20 -22 -22 -63 -5 -80 19 -19 46 -14 80 17 32 28 32 29
15 55 -21 31 -66 35 -90 8z"/>
<path d="M2396 3275 c-4 -11 -21 -15 -59 -15 -60 0 -81 -14 -75 -52 3 -20 9
-23 56 -26 59 -3 59 -3 42 -93 -67 -345 -27 -666 91 -729 34 -19 35 16 1 54
-16 19 -40 61 -53 93 -43 113 -35 388 18 598 l18 70 43 3 44 3 -9 -113 c-22
-306 2 -550 67 -685 30 -61 88 -123 115 -123 25 0 16 35 -14 58 -40 29 -85
128 -108 232 -22 102 -22 403 -1 540 l13 85 444 3 c308 1 448 6 458 13 19 16
16 47 -6 58 -12 7 -205 11 -524 11 -427 1 -507 3 -518 16 -15 18 -35 18 -43
-1z"/>
<path d="M1757 3225 c-123 -34 -257 -132 -257 -188 0 -15 3 -27 6 -27 3 0 26
18 52 40 92 82 236 132 376 132 106 1 160 -17 213 -68 42 -40 43 -42 43 -105
0 -64 -18 -145 -33 -148 -4 -1 -33 6 -64 15 -92 27 -195 16 -288 -30 -84 -42
-193 -136 -219 -190 -64 -134 -31 -232 84 -251 47 -8 175 38 257 91 128 84
263 249 297 363 9 30 16 86 16 125 0 126 -66 207 -195 241 -72 18 -221 18
-288 0z m317 -401 c45 -7 47 -8 41 -32 -19 -77 -147 -214 -250 -269 -82 -43
-174 -72 -208 -66 -40 8 -69 49 -61 87 23 113 163 234 312 270 66 17 101 18
166 10z"/>
<path d="M3200 3133 c0 -47 -12 -56 -49 -37 -48 24 -160 15 -233 -18 -135 -62
-287 -192 -308 -265 -18 -58 -5 -110 35 -150 28 -28 40 -33 78 -33 60 0 117
22 185 69 65 47 191 168 224 217 13 19 26 34 29 34 3 0 2 -26 -3 -57 -5 -32
-9 -128 -10 -213 0 -132 3 -165 21 -220 27 -83 53 -125 93 -150 29 -17 33 -18
41 -4 7 12 0 23 -26 45 -22 18 -44 51 -59 87 -20 52 -22 73 -22 232 1 174 9
244 50 409 14 53 14 65 3 72 -29 18 -49 10 -49 -18z m-65 -93 c17 -27 -105
-168 -216 -251 -114 -84 -216 -120 -254 -89 -20 16 -19 69 1 100 59 87 222
213 314 241 37 11 148 10 155 -1z"/>
<path d="M1923 2363 c-7 -3 -13 -13 -13 -24 0 -13 7 -19 24 -19 24 0 84 -42
115 -82 10 -13 30 -47 45 -75 l26 -53 -354 0 c-323 0 -356 -2 -376 -18 -28
-22 -18 -48 24 -63 31 -11 32 -12 22 -54 l-10 -43 -76 -4 c-95 -5 -170 -39
-244 -112 -144 -140 -133 -286 20 -286 64 0 123 30 202 104 l65 61 -6 -80 c-7
-89 4 -128 39 -133 19 -3 22 4 32 80 19 144 56 222 135 279 49 35 73 37 79 6
7 -35 -17 -139 -48 -206 -27 -61 -27 -91 0 -91 42 0 103 137 112 255 6 61 4
73 -15 96 -11 15 -32 30 -46 33 -36 9 -98 -10 -135 -41 -17 -14 -33 -24 -35
-21 -3 2 1 35 8 74 l13 69 260 2 259 2 -65 -33 c-36 -19 -89 -56 -117 -82 -29
-27 -66 -59 -83 -72 -35 -27 -37 -42 -11 -66 11 -10 23 -31 26 -47 25 -111
225 -79 225 36 0 40 -21 68 -67 90 l-37 18 25 20 c28 23 111 62 153 73 l29 7
-6 -49 c-31 -236 -31 -364 0 -430 19 -40 35 -47 59 -29 18 12 18 14 0 47 -16
30 -18 51 -14 154 3 65 14 174 24 242 l18 122 206 0 206 0 -10 -44 -10 -44
-76 -4 c-95 -6 -171 -41 -244 -113 -61 -60 -96 -125 -96 -178 0 -80 41 -113
133 -105 59 5 110 33 196 106 l51 44 0 -89 c0 -94 8 -113 46 -113 20 0 22 6
26 89 6 109 36 181 102 244 59 58 101 76 124 54 16 -17 18 -39 10 -139 -4 -63
22 -90 94 -98 l51 -5 22 -65 c32 -94 52 -130 75 -130 30 0 32 15 5 62 -14 25
-30 69 -35 99 l-11 54 36 29 c52 42 75 93 75 168 0 113 -60 183 -155 183 -64
0 -105 -25 -120 -73 -9 -33 -19 -40 -30 -22 -18 28 -140 -3 -174 -44 -18 -21
-34 -20 -27 2 2 9 10 43 16 75 l11 57 79 0 c43 0 90 4 105 10 37 14 43 39 16
62 -22 17 -48 18 -371 18 l-348 0 -7 33 c-18 80 -101 188 -158 206 -50 15 -81
19 -94 14z m1172 -424 c20 -20 20 -20 -4 -40 -32 -26 -116 -27 -130 -1 -7 14
-6 25 5 40 25 36 93 37 129 1z m-1685 -79 c0 -53 -58 -127 -162 -206 -63 -49
-96 -64 -138 -64 -67 0 -56 65 28 167 64 76 146 122 220 123 46 0 52 -2 52
-20z m1170 -8 c0 -62 -121 -191 -227 -243 -55 -27 -107 -23 -111 9 -5 34 35
107 89 163 59 61 137 99 202 99 45 0 47 -1 47 -28z m447 -32 c23 0 53 4 67 10
14 5 27 6 30 2 7 -11 -28 -85 -48 -101 -14 -12 -20 -10 -49 23 -24 28 -40 38
-64 38 -23 1 -33 7 -37 22 -11 42 -7 46 27 26 18 -12 50 -20 74 -20z m-1086
-30 c26 -15 24 -35 -8 -60 -35 -27 -77 -23 -81 7 -8 52 39 79 89 53z m1043
-66 c34 -13 17 -34 -26 -34 l-43 1 24 19 c26 23 24 22 45 14z"/>
<path d="M3275 2121 c-3 -6 -40 -11 -86 -11 -88 0 -119 -10 -119 -40 0 -38 27
-50 112 -50 l80 0 -7 -29 c-10 -48 -8 -271 4 -344 6 -37 20 -91 31 -120 34
-90 119 -151 128 -91 2 13 -6 27 -21 37 -61 40 -93 182 -84 374 9 192 -13 173
201 173 l181 -1 -56 -28 c-61 -29 -102 -58 -160 -112 -20 -19 -48 -42 -63 -52
-29 -20 -36 -64 -12 -73 8 -3 18 -19 21 -35 8 -38 59 -79 96 -79 128 0 183
137 77 191 -22 11 -38 25 -36 31 10 28 178 102 194 85 2 -2 -3 -55 -12 -117
-19 -135 -16 -301 6 -344 20 -40 44 -53 64 -37 13 11 13 17 -6 52 -18 36 -20
50 -14 137 7 87 27 265 42 350 5 32 5 32 64 32 47 0 64 4 80 20 25 25 25 32 2
53 -16 14 -59 17 -342 19 -179 2 -332 7 -341 11 -10 5 -20 4 -24 -2z m299
-337 c21 -8 20 -37 -1 -56 -59 -50 -116 -20 -83 43 11 19 51 26 84 13z"/>
</g>
</svg>
