<svg width="21" height="20" viewBox="0 0 21 20" fill="none" xmlns="http://www.w3.org/2000/svg">
<path d="M16.2143 0H4.78571C2.41878 0 0.5 1.91878 0.5 4.28571V15.7143C0.5 18.0812 2.41878 20 4.78571 20H16.2143C18.5812 20 20.5 18.0812 20.5 15.7143V4.28571C20.5 1.91878 18.5812 0 16.2143 0Z" fill="url(#paint0_radial_3_58)"/>
<path d="M16.2143 0H4.78571C2.41878 0 0.5 1.91878 0.5 4.28571V15.7143C0.5 18.0812 2.41878 20 4.78571 20H16.2143C18.5812 20 20.5 18.0812 20.5 15.7143V4.28571C20.5 1.91878 18.5812 0 16.2143 0Z" fill="url(#paint1_radial_3_58)"/>
<path d="M16.2143 0H4.78571C2.41878 0 0.5 1.91878 0.5 4.28571V15.7143C0.5 18.0812 2.41878 20 4.78571 20H16.2143C18.5812 20 20.5 18.0812 20.5 15.7143V4.28571C20.5 1.91878 18.5812 0 16.2143 0Z" fill="url(#paint2_radial_3_58)"/>
<path d="M15.4998 6.07143C15.4998 6.66314 15.0201 7.14286 14.4284 7.14286C13.8366 7.14286 13.3569 6.66314 13.3569 6.07143C13.3569 5.47969 13.8366 5 14.4284 5C15.0201 5 15.4998 5.47969 15.4998 6.07143Z" fill="white"/>
<path fill-rule="evenodd" clip-rule="evenodd" d="M10.5001 13.5713C12.4726 13.5713 14.0716 11.9723 14.0716 9.9999C14.0716 8.02747 12.4726 6.42847 10.5001 6.42847C8.52771 6.42847 6.92871 8.02747 6.92871 9.9999C6.92871 11.9723 8.52771 13.5713 10.5001 13.5713ZM10.5001 12.1428C11.6836 12.1428 12.643 11.1834 12.643 9.9999C12.643 8.8164 11.6836 7.85704 10.5001 7.85704C9.31664 7.85704 8.35728 8.8164 8.35728 9.9999C8.35728 11.1834 9.31664 12.1428 10.5001 12.1428Z" fill="white"/>
<path fill-rule="evenodd" clip-rule="evenodd" d="M3.35693 9.7142C3.35693 7.31398 3.35693 6.11384 3.82405 5.1971C4.23493 4.39068 4.89056 3.73506 5.69698 3.32417C6.61372 2.85706 7.81386 2.85706 10.2141 2.85706H10.7855C13.1857 2.85706 14.3859 2.85706 15.3026 3.32417C16.109 3.73506 16.7646 4.39068 17.1755 5.1971C17.6426 6.11384 17.6426 7.31398 17.6426 9.7142V10.2856C17.6426 12.6858 17.6426 13.886 17.1755 14.8027C16.7646 15.6091 16.109 16.2648 15.3026 16.6756C14.3859 17.1428 13.1857 17.1428 10.7855 17.1428H10.2141C7.81386 17.1428 6.61372 17.1428 5.69698 16.6756C4.89056 16.2648 4.23493 15.6091 3.82405 14.8027C3.35693 13.886 3.35693 12.6858 3.35693 10.2856V9.7142ZM10.2141 4.28563H10.7855C12.0092 4.28563 12.841 4.28674 13.484 4.33927C14.1104 4.39044 14.4306 4.48319 14.6541 4.59703C15.1916 4.87096 15.6287 5.30805 15.9026 5.84563C16.0165 6.06906 16.1093 6.38934 16.1604 7.0157C16.2129 7.6587 16.2141 8.49048 16.2141 9.7142V10.2856C16.2141 11.5093 16.2129 12.3411 16.1604 12.9841C16.1093 13.6105 16.0165 13.9308 15.9026 14.1542C15.6287 14.6918 15.1916 15.1288 14.6541 15.4028C14.4306 15.5166 14.1104 15.6094 13.484 15.6606C12.841 15.7131 12.0092 15.7142 10.7855 15.7142H10.2141C8.99036 15.7142 8.15858 15.7131 7.51558 15.6606C6.88922 15.6094 6.56893 15.5166 6.3455 15.4028C5.80793 15.1288 5.37084 14.6918 5.09691 14.1542C4.98307 13.9308 4.89032 13.6105 4.83915 12.9841C4.78662 12.3411 4.78551 11.5093 4.78551 10.2856V9.7142C4.78551 8.49048 4.78662 7.6587 4.83915 7.0157C4.89032 6.38934 4.98307 6.06906 5.09691 5.84563C5.37084 5.30805 5.80793 4.87096 6.3455 4.59703C6.56893 4.48319 6.88922 4.39044 7.51558 4.33927C8.15858 4.28674 8.99036 4.28563 10.2141 4.28563Z" fill="white"/>
<defs>
<radialGradient id="paint0_radial_3_58" cx="0" cy="0" r="1" gradientUnits="userSpaceOnUse" gradientTransform="translate(7.64286 15) rotate(-55.3758) scale(18.2283)">
<stop stop-color="#B13589"/>
<stop offset="0.79309" stop-color="#C62F94"/>
<stop offset="1" stop-color="#8A3AC8"/>
</radialGradient>
<radialGradient id="paint1_radial_3_58" cx="0" cy="0" r="1" gradientUnits="userSpaceOnUse" gradientTransform="translate(6.92857 20.7143) rotate(-65.1363) scale(16.1387)">
<stop stop-color="#E0E8B7"/>
<stop offset="0.444662" stop-color="#FB8A2E"/>
<stop offset="0.71474" stop-color="#E2425C"/>
<stop offset="1" stop-color="#E2425C" stop-opacity="0"/>
</radialGradient>
<radialGradient id="paint2_radial_3_58" cx="0" cy="0" r="1" gradientUnits="userSpaceOnUse" gradientTransform="translate(-0.571428 0.714286) rotate(-8.1301) scale(27.7792 5.94169)">
<stop offset="0.156701" stop-color="#406ADC"/>
<stop offset="0.467799" stop-color="#6A45BE"/>
<stop offset="1" stop-color="#6A45BE" stop-opacity="0"/>
</radialGradient>
</defs>
</svg>
