<svg width="21" height="20" viewBox="0 0 21 20" fill="none" xmlns="http://www.w3.org/2000/svg">
<rect x="2.8667" y="1.53333" width="16.4999" height="17.1333" fill="white"/>
<path d="M17.5416 17.0416H14.5783V12.4C14.5783 11.2933 14.5583 9.86832 13.0366 9.86832C11.4933 9.86832 11.2566 11.075 11.2566 12.3183V17.0416H8.29331V7.49666H11.1383V8.80166H11.1783C11.7583 7.81166 12.8383 7.21833 13.985 7.26C16.9883 7.26 17.5433 9.23499 17.5433 11.8066L17.5416 17.04V17.0416ZM4.94998 6.19167C4.49478 6.18948 4.05881 6.00779 3.73677 5.68607C3.41473 5.36434 3.23262 4.92855 3.22999 4.47334C3.22999 3.53001 4.00665 2.75335 4.94998 2.75335C5.89331 2.75335 6.66831 3.53001 6.66998 4.47334C6.66998 5.41667 5.89331 6.19167 4.94998 6.19167ZM6.43165 17.0416H3.46499V7.49666H6.43165V17.0416ZM19.0166 2.4772e-05H1.97499C1.58858 -0.0022196 1.21689 0.148124 0.940704 0.418383C0.664514 0.688643 0.506141 1.05698 0.5 1.44335V18.5566C0.506141 18.943 0.664514 19.3113 0.940704 19.5816C1.21689 19.8519 1.58858 20.0022 1.97499 20H19.0183C19.4056 20.0031 19.7785 19.8532 20.0559 19.583C20.3333 19.3127 20.4929 18.9439 20.4999 18.5566V1.44169C20.4929 1.05473 20.3332 0.686237 20.0557 0.416504C19.7782 0.146772 19.4053 -0.00233041 19.0183 0.00169131L19.0166 2.4772e-05Z" fill="#0A66C2"/>
</svg>
