<svg width="22" height="22" viewBox="0 0 22 22" fill="none" xmlns="http://www.w3.org/2000/svg">
<rect width="22" height="22" rx="4" fill="white"/>
<path d="M13.7659 12.9816L13.4116 13.3545C13.4116 13.3545 12.5696 14.241 10.2713 11.8212C7.97298 9.40155 8.81498 8.51507 8.81498 8.51507L9.03805 8.2802C9.58763 7.70164 9.63943 6.77275 9.15993 6.09463L8.1792 4.70748C7.58577 3.86817 6.43908 3.75729 5.7589 4.47339L4.5381 5.75867C4.20084 6.11374 3.97484 6.57402 4.00225 7.08463C4.07236 8.39092 4.63055 11.2015 7.74528 14.4808C11.0483 17.9582 14.1475 18.0964 15.4149 17.9713C15.8158 17.9318 16.1644 17.7156 16.4453 17.4198L17.5502 16.2566C18.296 15.4714 18.0857 14.1252 17.1314 13.576L15.6455 12.7207C15.0189 12.3601 14.2556 12.466 13.7659 12.9816Z" fill="#303030"/>
</svg>
