<svg width="21" height="20" viewBox="0 0 21 20" fill="none" xmlns="http://www.w3.org/2000/svg">
<g clip-path="url(#clip0_3_60)">
<rect x="0.5" width="20" height="20" rx="5" fill="#D22215"/>
<rect x="11.5" y="11" width="9" height="9" fill="#A81411"/>
</g>
<path d="M16.0464 6.31287C15.716 6.41372 15.3714 6.50037 15.0263 6.58667C12.5776 7.10608 9.31262 5.69622 7.90275 7.99653C6.72692 9.82565 6.35566 12.1145 5.01807 13.7499L11.4365 20.0001C16.0464 14.7246 17.3319 13.2921 20.4999 11.0744L16.0464 6.31287Z" fill="#A81411"/>
<path d="M14.1868 5.53772H6.81341C5.36678 5.53772 4.19409 6.71046 4.19409 8.15704V11.843C4.19409 13.2896 5.36683 14.4623 6.81341 14.4623H14.1868C15.6334 14.4623 16.8061 13.2896 16.8061 11.843V8.15704C16.8061 6.71046 15.6334 5.53772 14.1868 5.53772ZM12.4153 10.1793L8.9666 11.8241C8.87466 11.868 8.76847 11.8011 8.76847 11.6993V8.30679C8.76847 8.20348 8.87746 8.13655 8.96949 8.18325L12.4182 9.93089C12.5209 9.98284 12.519 10.1299 12.4153 10.1793Z" fill="white"/>
<path d="M14.1867 5.53772H10.4258V8.9212L12.4182 9.9308C12.5208 9.9828 12.5189 10.1298 12.4152 10.1793L10.4258 11.1282V14.4623H14.1867C15.6333 14.4623 16.806 13.2896 16.806 11.843V8.15704C16.806 6.71046 15.6333 5.53772 14.1867 5.53772Z" fill="#D1D1D1"/>
<defs>
<clipPath id="clip0_3_60">
<rect x="0.5" width="20" height="20" rx="5" fill="white"/>
</clipPath>
</defs>
</svg>
